<?xml version="1.0" standalone="no"?>
<!DOCTYPE svg PUBLIC "-//W3C//DTD SVG 20010904//EN"
 "http://www.w3.org/TR/2001/REC-SVG-20010904/DTD/svg10.dtd">
<svg version="1.0" xmlns="http://www.w3.org/2000/svg"
 width="614.000000pt" height="614.000000pt" viewBox="0 0 614.000000 614.000000"
 preserveAspectRatio="xMidYMid meet">
<metadata>
Created by potrace 1.11, written by Peter Selinger 2001-2013
</metadata>
<g transform="translate(0.000000,614.000000) scale(0.100000,-0.100000)"
fill="#000000" stroke="none">
<path d="M1487 5648 c-85 -148 -99 -172 -133 -229 -19 -31 -34 -62 -34 -68 0
-6 -4 -11 -10 -11 -5 0 -10 -4 -10 -9 0 -4 -29 -58 -64 -119 -62 -106 -102
-176 -133 -232 -8 -14 -22 -38 -32 -55 -10 -16 -70 -120 -133 -230 -64 -110
-125 -216 -137 -235 -11 -19 -24 -42 -28 -50 -4 -8 -26 -47 -50 -86 -24 -39
-43 -77 -43 -83 0 -6 -4 -11 -8 -11 -5 0 -16 -17 -26 -37 -10 -21 -33 -64 -52
-95 -19 -32 -34 -60 -34 -64 1 -4 -2 -10 -7 -13 -5 -3 -42 -64 -83 -136 -40
-71 -80 -138 -88 -147 -8 -10 -11 -18 -6 -18 5 0 4 -4 -2 -8 -6 -4 -17 -20
-26 -37 -8 -16 -63 -113 -123 -215 -59 -102 -119 -205 -133 -230 -13 -25 -40
-70 -59 -101 l-34 -56 77 -134 c42 -74 99 -171 125 -217 27 -45 49 -87 49 -92
0 -6 5 -10 10 -10 6 0 10 -4 10 -9 0 -6 62 -117 138 -248 76 -131 141 -245
145 -253 4 -8 16 -28 27 -45 11 -16 23 -37 27 -45 4 -8 35 -64 70 -123 35 -60
74 -127 87 -150 13 -23 56 -98 96 -167 40 -69 81 -141 92 -160 11 -19 37 -64
58 -100 21 -36 52 -90 69 -120 44 -77 108 -189 133 -230 11 -19 31 -53 43 -75
13 -22 71 -123 130 -225 60 -102 117 -202 128 -223 l21 -37 1536 0 1537 0 19
38 c10 20 22 39 25 42 4 3 17 25 29 50 12 25 25 47 29 50 3 3 19 30 35 60 16
30 38 66 48 79 10 13 18 30 18 37 0 8 4 14 8 14 4 0 13 12 19 28 7 15 24 47
39 72 15 25 38 65 52 90 14 25 35 61 47 80 12 19 25 42 29 50 4 8 18 33 31 55
14 22 30 51 37 65 7 14 27 48 45 77 18 29 33 54 33 57 0 3 16 30 35 60 19 30
35 58 35 61 0 3 16 30 35 60 19 30 31 55 27 55 -4 0 -2 4 4 8 6 4 46 70 90
147 43 77 82 142 86 143 5 2 8 7 8 12 0 7 104 195 119 215 5 6 22 35 38 65 32
58 41 74 122 213 28 49 51 93 51 98 0 5 3 9 8 9 4 0 12 10 18 23 6 12 34 62
62 111 29 49 52 91 52 93 0 3 8 17 19 31 10 15 30 47 43 72 14 25 38 68 54 95
15 28 32 52 36 53 4 2 8 12 8 23 0 10 3 19 8 19 4 0 12 12 19 26 11 25 4 40
-103 226 -63 110 -124 215 -134 233 -10 18 -37 63 -59 100 -23 37 -41 68 -41
70 0 1 -23 42 -51 91 -29 49 -59 103 -69 119 -29 51 -397 688 -418 725 -42 71
-80 137 -112 195 -18 33 -36 65 -40 70 -4 6 -17 26 -28 45 -38 68 -171 298
-191 331 -12 19 -24 41 -28 49 -3 8 -25 47 -48 85 -23 39 -77 132 -121 207
l-79 138 -1536 0 -1535 0 -47 -82z m2876 -398 c6 -16 15 -30 19 -30 4 0 8 -5
8 -10 0 -6 18 -40 40 -76 22 -36 40 -68 40 -70 0 -2 18 -33 40 -69 22 -36 40
-67 40 -69 0 -2 17 -33 38 -67 22 -35 50 -84 64 -109 42 -76 62 -110 140 -245
42 -71 85 -146 96 -165 30 -53 93 -162 107 -185 7 -11 12 -22 13 -25 0 -3 18
-34 41 -70 22 -36 54 -92 72 -125 17 -33 38 -67 45 -76 8 -8 14 -18 14 -22 0
-3 20 -40 45 -80 25 -41 45 -78 45 -82 0 -4 9 -19 19 -34 11 -15 34 -54 52
-86 17 -33 37 -67 43 -75 6 -8 16 -24 22 -35 31 -58 66 -119 113 -197 28 -48
51 -91 51 -97 0 -5 3 -11 8 -13 4 -1 15 -18 24 -36 l18 -33 -90 -155 c-50 -85
-90 -159 -90 -165 0 -5 -4 -9 -10 -9 -5 0 -10 -4 -10 -10 0 -5 -13 -31 -29
-58 -15 -26 -40 -68 -53 -93 -74 -130 -336 -583 -370 -638 -21 -34 -38 -65
-38 -67 0 -3 -7 -16 -16 -29 l-16 -25 -43 24 c-23 13 -129 75 -236 136 -107
62 -214 124 -239 138 -25 14 -57 32 -72 41 -107 64 -192 111 -199 111 -5 0 -9
5 -9 10 0 6 -5 10 -10 10 -6 0 -40 18 -76 40 -36 22 -67 40 -69 40 -2 0 -97
55 -212 121 -114 67 -224 131 -243 141 -50 29 -191 111 -215 125 -11 7 -26 15
-34 19 -8 4 -64 36 -125 72 -61 36 -131 76 -156 90 -25 13 -49 28 -55 32 -5 4
-30 19 -55 32 -25 14 -112 64 -194 112 -82 47 -151 86 -152 86 -2 0 -28 16
-58 35 -30 19 -60 35 -66 35 -5 0 -10 5 -10 10 0 6 -5 10 -10 10 -8 0 -785
445 -870 498 -14 9 -26 14 -26 11 -1 -2 -10 3 -20 11 -21 17 -16 14 -220 130
-116 66 -149 89 -143 100 5 8 64 112 132 230 68 118 139 242 158 275 19 33 39
68 44 77 6 9 23 41 39 70 15 29 33 60 40 68 6 8 16 24 22 35 57 105 230 401
237 406 5 3 8 9 7 13 0 4 7 20 17 36 l17 30 1279 0 1279 0 11 -30z m-3449
-1650 c4 0 35 -18 70 -40 35 -22 66 -40 69 -40 3 0 34 -17 68 -38 59 -36 286
-168 369 -215 52 -29 539 -311 580 -336 19 -11 42 -24 50 -28 8 -4 87 -49 174
-100 87 -51 160 -93 162 -93 2 0 44 -25 95 -55 50 -30 93 -55 95 -55 2 0 27
-14 56 -31 160 -96 272 -159 279 -159 5 0 9 -5 9 -11 0 -5 4 -8 9 -4 5 3 12 1
15 -4 3 -5 52 -35 108 -66 57 -32 111 -65 121 -73 9 -8 17 -12 17 -9 0 4 25
-9 55 -28 30 -20 74 -46 97 -58 24 -13 115 -65 203 -117 214 -124 226 -131
255 -147 14 -8 41 -23 60 -35 19 -11 118 -68 220 -126 102 -59 187 -109 190
-112 3 -3 16 -11 30 -17 14 -7 48 -25 75 -41 206 -120 220 -129 217 -145 -1
-9 -20 -44 -41 -79 -21 -35 -49 -83 -62 -108 -13 -25 -32 -56 -41 -69 l-17
-24 -118 68 c-65 38 -173 100 -241 139 -68 39 -140 81 -160 94 -20 12 -48 28
-62 34 -14 7 -47 27 -75 44 -27 17 -75 44 -105 61 -30 17 -95 54 -145 83 -49
29 -110 64 -135 78 -25 14 -126 73 -225 130 -190 111 -223 130 -295 170 -25
13 -49 28 -55 32 -5 4 -30 19 -55 32 -25 14 -101 58 -170 98 -130 76 -165 96
-240 138 -25 14 -57 33 -72 43 -14 11 -30 19 -34 19 -4 0 -24 11 -43 24 -37
24 -524 306 -621 359 -30 16 -62 36 -71 43 -8 8 -19 14 -22 14 -4 0 -37 18
-73 40 -36 22 -67 40 -69 40 -2 0 -39 21 -82 46 -43 26 -91 55 -108 64 -79 45
-512 294 -527 303 -19 13 -17 21 39 115 24 40 43 77 43 82 0 6 4 10 8 10 5 0
14 12 21 28 7 15 19 37 27 50 l15 23 29 -21 c15 -11 31 -20 34 -20z m0 -912
c93 -54 170 -98 172 -98 2 0 27 -14 56 -31 79 -47 287 -168 338 -197 25 -13
93 -53 153 -88 59 -35 112 -64 117 -64 6 0 10 -4 10 -10 0 -5 5 -10 10 -10 14
0 224 -122 228 -132 2 -5 8 -8 13 -8 8 0 88 -44 191 -105 15 -9 130 -75 227
-130 20 -11 79 -46 131 -76 103 -61 559 -324 600 -346 14 -8 43 -25 65 -39 22
-13 51 -30 65 -37 14 -6 31 -17 38 -24 7 -7 18 -13 24 -13 6 0 19 -6 27 -14 9
-7 48 -30 86 -51 39 -21 110 -62 159 -91 49 -30 93 -54 97 -54 4 0 14 -6 21
-13 7 -7 24 -18 38 -24 14 -7 48 -26 75 -43 28 -17 57 -33 65 -37 8 -4 17 -9
20 -12 3 -4 16 -12 30 -19 78 -40 100 -53 100 -56 0 -4 -23 -6 -75 -6 -85 -1
-222 -1 -232 0 -23 0 -48 0 -96 0 -27 0 -53 2 -58 5 -5 4 -9 2 -9 -3 0 -6 -13
-7 -32 -3 -18 4 -45 4 -60 0 -15 -4 -29 -5 -32 -2 -2 3 -24 6 -48 8 -32 2 -70
19 -144 64 -56 34 -107 61 -113 61 -6 0 -11 5 -11 10 0 6 -4 10 -10 10 -5 0
-55 27 -111 60 -55 33 -103 60 -105 60 -3 0 -30 16 -60 35 -30 19 -56 35 -58
35 -2 0 -50 27 -105 60 -56 33 -106 60 -111 60 -6 0 -10 4 -10 9 0 5 -8 11
-17 14 -22 7 -118 62 -155 88 -14 10 -29 19 -32 19 -4 0 -41 21 -84 46 -42 25
-84 49 -92 54 -8 5 -50 29 -93 54 -43 25 -80 46 -82 46 -3 0 -34 18 -70 40
-36 22 -67 40 -69 40 -2 0 -45 25 -95 55 -51 30 -94 55 -97 55 -2 0 -21 11
-42 24 -51 33 -236 141 -242 141 -3 0 -16 8 -30 17 -24 15 -119 71 -190 110
-19 11 -74 43 -122 71 l-88 51 -77 136 c-42 74 -80 137 -83 140 -3 3 -11 16
-17 30 -7 14 -23 43 -36 65 -73 127 -99 172 -114 193 -16 23 -15 23 33 -4 27
-15 125 -72 218 -126z m599 -1258 c4 0 117 -64 177 -100 8 -4 134 -77 280
-162 146 -84 277 -160 291 -168 14 -8 61 -35 103 -60 43 -25 89 -51 102 -58
13 -7 24 -18 24 -23 0 -6 -4 -8 -9 -4 -6 3 -38 5 -73 5 -35 0 -72 0 -83 0 -11
0 -31 0 -45 -1 -14 -1 -32 -1 -40 -1 -15 1 -133 2 -160 2 -14 -1 -197 -1 -230
0 -43 0 -62 7 -73 30 -19 37 -246 431 -265 460 -9 14 -17 27 -17 30 -1 3 -11
21 -23 40 -30 47 -28 55 7 31 16 -12 31 -21 34 -21z"/>
</g>
</svg>
